PathFileType	4	(X/Y/Z)	Kaydara																																																																																																																									
DataRate	CameraRate	NumFrames	NumMarkers	Units	OrigDataRate	OrigDataStartFrame	OrigNumFrames																																																																																																																					
30	30	7	41	mm	30	45	354																																																																																																																					
Frame#	Time	SALE_LFHD			SALE_RFHD			SALE_LBHD			SALE_RBHD			SALE_LFTShould			SALE_RFTShould			SALE_LRRShould			SALE_RRRShould			SALE_T10			SALE_STRN			SALE_TRUN			SALE_LSHO			SALE_LUPA			SALE_LELB			SALE_LFRM			SALE_LWRA			SALE_LWRB			SALE_LFIN			SALE_RSHO			SALE_RUPA			SALE_RELB			SALE_RFRM			SALE_RWRB			SALE_RFIN			SALE_LFWT			SALE_RFWT			SALE_LBWT			SALE_RBWT			SALE_LTHI			SALE_LKNE			SALE_RWRA			SALE_LSHN			SALE_LANK			SALE_LHEE			SALE_LTOE			SALE_RTHI			SALE_RKNE			SALE_RSHN			SALE_RANK			SALE_RHEE			SALE_RTOE		
		X1	Y1	Z1	X2	Y2	Z2	X3	Y3	Z3	X4	Y4	Z4	X5	Y5	Z5	X6	Y6	Z6	X7	Y7	Z7	X8	Y8	Z8	X9	Y9	Z9	X10	Y10	Z10	X11	Y11	Z11	X12	Y12	Z12	X13	Y13	Z13	X14	Y14	Z14	X15	Y15	Z15	X16	Y16	Z16	X17	Y17	Z17	X18	Y18	Z18	X19	Y19	Z19	X20	Y20	Z20	X21	Y21	Z21	X22	Y22	Z22	X23	Y23	Z23	X24	Y24	Z24	X25	Y25	Z25	X26	Y26	Z26	X27	Y27	Z27	X28	Y28	Z28	X29	Y29	Z29	X30	Y30	Z30	X31	Y31	Z31	X32	Y32	Z32	X33	Y33	Z33	X34	Y34	Z34	X35	Y35	Z35	X36	Y36	Z36	X37	Y37	Z37	X38	Y38	Z38	X39	Y39	Z39	X40	Y40	Z40	X41	Y41	Z41
																																																																																																																												
45	1.477	154.53326	1651.74393	-1946.42456	82.17881	1643.87878	-2054.17969	263.27234	1636.43799	-2022.03995	187.38783	1628.86963	-2122.36328	256.22322	1387.29706	-2008.61633	114.37675	1385.50919	-2017.05627	256.69292	1445.68024	-2119.76288	105.38684	1453.18115	-2121.39511	181.66044	1297.86285	-2196.23215	177.15782	1311.54587	-1968.92487	171.47991	1224.10255	-1931.55441	374.28791	1410.38864	-2070.02609	412.96707	1192.06215	-2078.93921	398.11871	1083.00896	-2098.36472	422.22141	978.14682	-2061.54312	353.18329	845.04982	-1995.88104	421.6272	834.66675	-2028.74817	414.42345	794.20731	-1979.08188	10.21583	1418.49731	-2082.88589	-28.28168	1189.82491	-2148.93417	-56.56881	1089.40811	-2103.15689	-52.13865	976.10641	-2112.78305	-68.49639	839.2411	-2065.16968	-73.12456	800.22072	-2009.79965	296.75116	975.02731	-1980.45609	17.45378	976.94069	-2010.91446	256.91969	1039.42657	-2152.96463	79.74451	1045.85815	-2172.69104	302.98058	675.35812	-2151.14777	285.85947	504.45927	-2077.4794	-18.61606	850.54993	-2013.2811	279.11686	307.15336	-2081.65207	272.88307	123.48174	-2131.98532	234.18079	75.19538	-2194.85245	245.23445	86.20339	-1997.72949	22.44482	722.64351	-2168.71399	34.80124	563.75397	-2063.63831	88.36701	375.65956	-2077.51862	42.54311	124.72484	-2129.94049	54.00787	78.26045	-2007.81326	89.40098	62.1717	-2198.00201
46	1.51	154.59297	1651.43631	-1946.26709	82.04056	1643.7915	-2054.06937	263.18928	1636.75812	-2022.41364	187.1513	1629.01535	-2122.45575	256.4263	1387.35901	-2009.07669	114.4427	1385.48462	-2017.42096	256.60742	1445.73486	-2120.22491	105.26807	1453.22235	-2121.69891	181.49282	1297.87064	-2196.61224	177.2304	1311.56296	-1969.32007	171.56183	1224.10034	-1931.90994	374.28307	1410.3894	-2070.54031	412.90585	1192.08023	-2079.45923	398.02155	1082.99828	-2098.89328	422.09545	978.14789	-2061.99615	353.11253	845.20737	-1996.18866	421.46484	834.7438	-2029.0831	414.22256	794.27757	-1979.29611	10.16216	1418.50037	-2083.08868	-28.43906	1189.85046	-2149.14474	-56.64862	1089.39926	-2103.2576	-52.18408	976.13739	-2112.93579	-68.39195	839.1848	-2065.27191	-73.15945	800.30769	-2009.87778	296.80292	975.05714	-1981.00876	17.56517	976.89941	-2011.27899	256.80832	1039.46251	-2153.51639	79.63642	1045.84877	-2172.99438	302.96881	675.37094	-2151.53885	285.84045	504.5026	-2077.60788	-18.60784	850.52353	-2013.43414	279.09378	307.13345	-2081.73126	272.88647	123.50464	-2132.02347	234.18344	75.1858	-2194.83231	245.21763	86.23567	-1997.73773	22.34691	722.62314	-2168.94135	34.76099	563.773	-2063.75854	88.328	375.66917	-2077.61917	42.50265	124.722	-2130.0119	53.99381	78.22249	-2007.6329	89.40845	62.21447	-2197.97638
47	1.543	155.18791	1651.84052	-1946.97205	81.87651	1643.71719	-2054.07349	262.96286	1636.69327	-2022.5708	186.84834	1629.12628	-2122.6767	256.1743	1387.32559	-2009.54178	114.47071	1385.51849	-2017.76169	256.43272	1445.78522	-2120.68069	105.12625	1453.24112	-2121.95908	181.24264	1297.94464	-2197.02072	177.24503	1311.57303	-1969.60922	171.72087	1224.12254	-1932.32849	374.17953	1410.41168	-2071.1792	412.73682	1192.09801	-2080.12772	397.83035	1083.05519	-2099.46732	421.88457	978.14377	-2062.50336	352.9113	845.25688	-1996.55792	421.17893	834.80209	-2029.51111	413.98209	794.37325	-1979.61288	10.08858	1418.50693	-2083.2431	-28.7025	1189.86465	-2149.22379	-56.76725	1089.45442	-2103.32092	-52.32724	976.13052	-2113.00339	-68.32152	839.15886	-2065.20782	-73.06912	800.34637	-2009.88647	296.84158	975.1664	-1981.5332	17.62941	976.87294	-2011.55518	256.71684	1039.48769	-2154.00146	79.46864	1045.84023	-2173.35159	302.87333	675.34256	-2151.85638	285.76569	504.51977	-2077.67822	-18.51656	850.6073	-2013.58124	279.0172	307.15775	-2081.79703	272.88195	123.47814	-2132.01431	234.17561	75.19607	-2194.87503	245.18259	86.23734	-1997.73849	22.2612	722.60422	-2169.151	34.73711	563.79158	-2063.93433	88.31239	375.66837	-2077.72537	42.51093	124.71679	-2130.06149	53.89122	78.15979	-2007.4823	89.45772	62.21988	-2197.94952
48	1.577	154.58813	1651.31088	-1946.5535	81.61989	1643.66089	-2054.10706	262.82036	1636.57639	-2022.84027	186.4789	1629.28299	-2122.95532	256.1681	1387.4118	-2010.09003	114.4001	1385.53085	-2018.04276	256.29078	1445.87845	-2121.19568	104.97067	1453.26447	-2122.22443	181.00296	1298.0159	-2197.46765	177.3407	1311.59714	-1970.05035	171.79203	1224.14276	-1932.71896	374.11896	1410.49118	-2071.82343	412.50656	1192.10747	-2080.76752	397.5359	1083.0867	-2100.09323	421.5493	978.17566	-2063.08029	352.68036	845.38986	-1996.99982	420.83786	834.84863	-2029.98169	413.61515	794.47029	-1980.05051	9.98279	1418.50616	-2083.35434	-28.9064	1189.91066	-2149.30191	-56.89711	1089.45892	-2103.31955	-52.44831	976.18217	-2113.04199	-68.23439	839.10332	-2065.20264	-72.93926	800.35072	-2009.9086	296.89428	975.24605	-1982.00867	17.62618	976.90659	-2011.81549	256.59681	1039.50089	-2154.51813	79.32249	1045.85747	-2173.67722	302.75604	675.33142	-2152.12708	285.62691	504.55399	-2077.82181	-18.45183	850.54733	-2013.7616	278.96929	307.17566	-2081.85104	272.84771	123.51152	-2131.99982	234.18303	75.16399	-2194.85962	245.16378	86.27521	-1997.76627	22.23027	722.61375	-2169.35089	34.71876	563.83316	-2064.09241	88.24613	375.7288	-2077.83737	42.45978	124.73785	-2130.17807	53.78228	78.15105	-2007.41623	89.46506	62.18432	-2197.9451
49	1.61	154.49793	1651.27533	-1946.76758	81.33066	1643.62793	-2054.20822	262.62478	1636.89224	-2023.45459	186.11481	1629.40582	-2123.22296	256.22623	1387.46063	-2010.59341	114.3756	1385.53955	-2018.34442	256.05642	1445.89233	-2121.68427	104.75924	1453.30673	-2122.48169	180.72119	1298.04321	-2197.83768	177.31939	1311.595	-1970.41229	171.82844	1224.18472	-1933.13873	373.92204	1410.52521	-2072.45804	412.28874	1192.12242	-2081.43143	397.24121	1083.1002	-2100.76996	421.2426	978.22006	-2063.68774	352.42661	845.48431	-1997.49008	420.43098	834.88884	-2030.46341	413.16048	794.54514	-1980.48553	9.83236	1418.51273	-2083.49823	-29.16371	1189.9321	-2149.39606	-56.98566	1089.45045	-2103.30276	-52.58603	976.18309	-2113.0925	-68.18545	839.04633	-2065.19989	-72.86405	800.32669	-2009.9649	296.96976	975.382	-1982.51236	17.61183	976.99875	-2012.00867	256.45573	1039.51355	-2155.00977	79.13526	1045.78186	-2173.98712	302.64795	675.34012	-2152.38968	285.59494	504.62761	-2077.9129	-18.40109	850.56091	-2013.98544	278.92111	307.21304	-2081.87347	272.86839	123.54714	-2131.99631	234.19086	75.17215	-2194.85184	245.13594	86.24743	-1997.74979	22.17898	722.55417	-2169.46777	34.66087	563.80909	-2064.21432	88.14678	375.72624	-2077.90359	42.46664	124.67714	-2130.2327	53.70517	78.12205	-2007.38327	89.51852	62.14088	-2197.96188
50	1.643	154.5954	1651.3382	-1947.13013	81.07755	1643.59589	-2054.23721	262.43732	1636.86188	-2023.82477	185.69197	1629.50607	-2123.51913	255.9589	1387.34848	-2011.13907	114.25027	1385.54779	-2018.72955	255.83338	1445.94604	-2122.18582	104.51483	1453.32352	-2122.7977	180.38761	1298.09128	-2198.25974	177.23734	1311.60202	-1970.86197	171.88219	1224.15581	-1933.54324	373.76141	1410.62805	-2073.12759	412.08843	1192.20825	-2082.20093	396.95522	1083.1324	-2101.45447	420.91343	978.27728	-2064.39926	352.0335	845.64781	-1998.16635	419.93454	834.88884	-2031.01852	412.7359	794.62105	-1981.05423	9.61089	1418.52402	-2083.73123	-29.40958	1189.88579	-2149.534	-57.10303	1089.41422	-2103.37479	-52.73574	976.10825	-2113.19687	-68.13032	838.94897	-2065.2182	-72.77859	800.28336	-2010.04379	297.03188	975.50644	-1983.11905	17.65071	977.05681	-2012.10449	256.28426	1039.48723	-2155.51117	78.98143	1045.66772	-2174.24408	302.57498	675.34584	-2152.63062	285.45349	504.66465	-2077.98492	-18.29469	850.57381	-2014.00513	278.84659	307.21992	-2081.89987	272.77721	123.53436	-2132.00043	234.16319	75.21001	-2194.85611	245.09708	86.28846	-1997.76749	21.96297	722.49512	-2169.51599	34.69119	563.81626	-2064.25919	88.10384	375.69847	-2077.92297	42.4673	124.67516	-2130.25284	53.68193	78.12942	-2007.37167	89.51447	62.14318	-2197.94907
51	1.677	154.97126	1651.47095	-1947.53784	80.81939	1643.5759	-2054.366	262.24504	1636.86737	-2024.17908	185.33443	1629.55154	-2123.78906	255.92455	1387.37869	-2011.55853	114.14725	1385.49438	-2018.93967	255.21563	1446.20392	-2123.06061	104.18978	1453.29361	-2123.14331	180.04684	1298.11981	-2198.70483	177.23455	1311.62048	-1971.29425	171.90319	1224.1465	-1933.94974	373.55171	1410.60272	-2073.65265	411.83929	1192.32147	-2082.94327	396.67171	1083.22807	-2102.22687	420.60608	978.30864	-2065.11963	351.80885	845.66093	-1998.85986	419.54548	834.93683	-2031.69571	412.30278	794.65424	-1981.642	9.37929	1418.47809	-2083.93311	-29.61066	1189.78447	-2149.68719	-57.2473	1089.34105	-2103.51898	-52.81457	976.01494	-2113.27301	-68.0936	838.86765	-2065.28549	-72.71291	800.20554	-2010.08514	297.05107	975.59639	-1983.50143	17.68538	977.06459	-2012.40738	256.12724	1039.46053	-2156.03546	78.78717	1045.58342	-2174.5166	302.46498	675.32928	-2152.87369	285.40222	504.71184	-2078.10928	-18.29891	850.49721	-2014.10431	278.80911	307.21207	-2081.97815	272.81382	123.5094	-2132.0285	234.13965	75.1767	-2194.87885	245.08507	86.2834	-1997.75345	21.79604	722.43149	-2169.51202	34.67614	563.8242	-2064.25339	88.16727	375.70072	-2077.91382	42.46401	124.6654	-2130.26993	53.65903	78.11602	-2007.39929	89.51786	62.13791	-2197.97409
